<?xml version="1.0" encoding="utf-8"?>
<!-- Generator: Adobe Illustrator 25.2.1, SVG Export Plug-In . SVG Version: 6.00 Build 0)  -->
<svg version="1.1" id="Camada_1" xmlns="http://www.w3.org/2000/svg" xmlns:xlink="http://www.w3.org/1999/xlink" x="0px" y="0px"
	 viewBox="0 0 158 50" style="enable-background:new 0 0 158 50;" xml:space="preserve">
<style type="text/css">
	.st0{opacity:0.4;}
	.st1{clip-path:url(#SVGID_2_);}
	.st2{fill:#3C3C3B;}
	.st3{opacity:0.5;}
	.st4{clip-path:url(#SVGID_6_);}
	.st5{fill:#FFFFFF;}
	.st6{clip-path:url(#SVGID_10_);}
</style>
<g class="st0">
	<g>
		<defs>
			<path id="SVGID_1_" d="M80.3,25c0-1.6,0.2-3.2,0.6-4.7c0.4-1.5,1-2.9,1.8-4.3s1.7-2.5,2.8-3.6c1.1-1.1,2.3-2,3.6-2.8
				c1.3-0.8,2.7-1.4,4.3-1.8c1.5-0.4,3.1-0.6,4.7-0.6c1.6,0,3.2,0.2,4.7,0.6c1.5,0.4,2.9,1,4.3,1.8c1.3,0.8,2.5,1.7,3.6,2.8
				c1.1,1.1,2,2.3,2.8,3.6c0.8,1.3,1.4,2.7,1.8,4.3c0.4,1.5,0.6,3.1,0.6,4.7c0,1.6-0.2,3.2-0.6,4.7c-0.4,1.5-1,2.9-1.8,4.2
				c-0.8,1.3-1.7,2.5-2.8,3.6c-1.1,1.1-2.3,2-3.6,2.8c-1.3,0.8-2.7,1.4-4.3,1.8s-3.1,0.6-4.7,0.6c-1.6,0-3.2-0.2-4.7-0.6
				s-2.9-1-4.3-1.8c-1.3-0.8-2.5-1.7-3.6-2.8c-1.1-1.1-2-2.3-2.8-3.6c-0.8-1.3-1.4-2.7-1.8-4.2C80.5,28.2,80.3,26.6,80.3,25z"/>
		</defs>
		<clipPath id="SVGID_2_">
			<use xlink:href="#SVGID_1_"  style="overflow:visible;"/>
		</clipPath>
		<g class="st1">
			<g>
				<defs>
					<rect id="SVGID_3_" x="75.3" y="2.2" width="45.6" height="45.6"/>
				</defs>
				<clipPath id="SVGID_4_">
					<use xlink:href="#SVGID_3_"  style="overflow:visible;"/>
				</clipPath>
				<g style="clip-path:url(#SVGID_4_);">
					
						<image style="overflow:visible;" width="96" height="96" xlink:href="500CE4F8.jpg"  transform="matrix(0.48 0 0 0.48 75.1008 1.9185)">
					</image>
				</g>
			</g>
		</g>
	</g>
</g>
<rect x="0.5" y="-1.1" class="st2" width="157.8" height="51.8"/>
<g class="st3">
	
		<image style="overflow:visible;opacity:0.75;" width="260" height="260" xlink:href="500CE4F8.png"  transform="matrix(0.24 0 0 0.24 67.3008 -6.3615)">
	</image>
	<g>
		<g>
			<defs>
				<path id="SVGID_5_" d="M114,20.6c-0.4-1.4-0.9-2.6-1.6-3.8c-0.7-1.2-1.5-2.3-2.5-3.3c-1-1-2.1-1.8-3.3-2.5
					c-1.2-0.7-2.5-1.2-3.9-1.6c-1.4-0.4-2.8-0.6-4.3-0.6c-1.5,0-2.9,0.2-4.3,0.6c-1.4,0.4-2.7,0.9-3.9,1.6c-1.2,0.7-2.3,1.5-3.3,2.5
					c-1,1-1.8,2.1-2.5,3.3c-0.7,1.2-1.2,2.5-1.6,3.8c-0.4,1.4-0.6,2.8-0.6,4.3s0.2,2.9,0.6,4.3c0.4,1.4,0.9,2.6,1.6,3.8
					c0.7,1.2,1.5,2.3,2.5,3.2c1,1,2.1,1.8,3.3,2.5c1.2,0.7,2.5,1.2,3.9,1.6c1.4,0.4,2.8,0.6,4.3,0.6c1.5,0,2.9-0.2,4.3-0.6
					c1.4-0.4,2.7-0.9,3.9-1.6c1.2-0.7,2.3-1.5,3.3-2.5c1-1,1.8-2,2.5-3.2c0.7-1.2,1.2-2.5,1.6-3.8c0.4-1.4,0.6-2.8,0.6-4.3
					S114.4,22,114,20.6z M98.6,33.5c-4.7,0-8.5-3.8-8.5-8.5s3.8-8.5,8.5-8.5c4.7,0,8.5,3.8,8.5,8.5S103.3,33.5,98.6,33.5z"/>
			</defs>
			<clipPath id="SVGID_6_">
				<use xlink:href="#SVGID_5_"  style="overflow:visible;"/>
			</clipPath>
			<g class="st4">
				<g>
					<defs>
						<rect id="SVGID_7_" x="77.3" y="3.8" width="42.3" height="42.1"/>
					</defs>
					<clipPath id="SVGID_8_">
						<use xlink:href="#SVGID_7_"  style="overflow:visible;"/>
					</clipPath>
					<g style="clip-path:url(#SVGID_8_);">
						
							<image style="overflow:visible;" width="89" height="89" xlink:href="500CE4FF.jpg"  transform="matrix(0.48 0 0 0.48 77.0208 3.3585)">
						</image>
					</g>
				</g>
			</g>
		</g>
	</g>
</g>
<image style="overflow:visible;" width="736" height="1104" xlink:href="500CE4F9.jpg"  transform="matrix(0.1522 0 0 0.1522 -137.8144 -5.7615)">
</image>
<path class="st5" d="M1.1,14.5c0-0.2,0.1-0.4,0.2-0.5c0.1-0.1,0.3-0.2,0.5-0.2h10c0.9,0,1.7,0.2,2.5,0.5c0.8,0.3,1.5,0.8,2.1,1.4
	c0.6,0.6,1.1,1.3,1.4,2.1c0.3,0.8,0.5,1.6,0.5,2.6c0,0.8-0.1,1.5-0.4,2.1c-0.2,0.7-0.6,1.2-1,1.7c0.7,0.7,1.3,1.5,1.7,2.4
	c0.4,0.9,0.6,1.9,0.6,2.9c0,0.9-0.2,1.8-0.5,2.6c-0.4,0.8-0.8,1.5-1.4,2.2c-0.6,0.6-1.3,1.1-2.1,1.5c-0.8,0.4-1.6,0.5-2.5,0.5H1.7
	c-0.2,0-0.4-0.1-0.5-0.2s-0.2-0.3-0.2-0.5V14.5z M12.5,20.4c0-0.3-0.1-0.6-0.2-0.8c-0.1-0.3-0.3-0.5-0.5-0.7
	c-0.2-0.2-0.4-0.4-0.7-0.5c-0.3-0.1-0.6-0.2-0.9-0.2H6.9v4.4h3.2c0.3,0,0.7-0.1,0.9-0.2c0.3-0.1,0.5-0.3,0.7-0.5
	c0.2-0.2,0.4-0.4,0.5-0.7C12.4,21,12.5,20.8,12.5,20.4z M13.3,29.2c0-0.3-0.1-0.6-0.2-0.9c-0.1-0.3-0.3-0.6-0.5-0.8
	c-0.2-0.2-0.5-0.4-0.7-0.6c-0.3-0.2-0.6-0.2-0.9-0.2h-4v5.1h4c0.3,0,0.6-0.1,0.9-0.2c0.3-0.1,0.5-0.3,0.7-0.6
	c0.2-0.2,0.4-0.5,0.5-0.8C13.2,29.9,13.3,29.5,13.3,29.2z"/>
<path class="st5" d="M25.5,14.4c0-0.2,0.1-0.3,0.2-0.5c0.1-0.1,0.3-0.2,0.5-0.2h4.4c0.2,0,0.3,0.1,0.5,0.2c0.2,0.1,0.3,0.3,0.3,0.5
	v21.1c0,0.4-0.2,0.7-0.7,0.7h-4.4c-0.4,0-0.7-0.2-0.7-0.7V14.4z"/>
<path class="st5" d="M39.4,14.5c0-0.2,0.1-0.4,0.2-0.5c0.1-0.1,0.3-0.2,0.4-0.2h14.5c0.2,0,0.4,0.1,0.5,0.2c0.1,0.1,0.2,0.3,0.2,0.5
	v3.7c0,0.2-0.1,0.3-0.2,0.5S54.7,19,54.4,19h-9.2v4.7H52c0.2,0,0.4,0.1,0.5,0.2c0.1,0.1,0.2,0.3,0.2,0.5v3.6c0,0.2-0.1,0.3-0.2,0.5
	c-0.1,0.2-0.3,0.2-0.5,0.2h-6.8v6.9c0,0.4-0.2,0.7-0.7,0.7h-4.6c-0.4-0.1-0.5-0.3-0.5-0.6V14.5z"/>
<path class="st5" d="M62,14.5c0-0.2,0.1-0.4,0.2-0.5c0.1-0.1,0.3-0.2,0.5-0.2h9.8c1,0,2,0.2,2.9,0.6c0.9,0.4,1.7,0.9,2.4,1.6
	c0.7,0.7,1.2,1.4,1.6,2.3c0.4,0.9,0.6,1.8,0.6,2.9c0,0.7-0.1,1.3-0.3,2c-0.2,0.6-0.4,1.2-0.8,1.7c-0.3,0.5-0.7,1-1.2,1.5
	c-0.5,0.4-1,0.8-1.5,1.1l3.9,7.3c0.1,0.1,0.2,0.3,0.3,0.5c0.1,0.2,0.2,0.4,0.2,0.5c0,0.2-0.1,0.3-0.2,0.4c-0.1,0.1-0.2,0.1-0.4,0.1
	h-5.2c-0.2,0-0.3-0.1-0.5-0.2c-0.1-0.1-0.2-0.2-0.3-0.4l-3.7-6.9h-2.5v6.8c0,0.4-0.2,0.7-0.7,0.7h-4.5c-0.2,0-0.4-0.1-0.5-0.2
	C62,36,62,35.8,62,35.6V14.5z M73.8,21.2c0-0.3-0.1-0.6-0.2-0.9c-0.1-0.3-0.3-0.6-0.5-0.8c-0.2-0.3-0.4-0.5-0.7-0.6
	s-0.6-0.3-0.9-0.3c-0.3,0-0.5,0-0.8-0.1c-0.2,0-0.5,0-0.8,0h-2.1V24h2.8c0.2,0,0.3,0,0.5,0s0.3,0,0.5,0c0.4,0,0.7-0.1,1-0.3
	c0.3-0.2,0.5-0.4,0.7-0.6c0.2-0.2,0.3-0.5,0.4-0.8C73.8,21.8,73.8,21.5,73.8,21.2z"/>
<g>
	<g>
		<defs>
			<path id="SVGID_9_" d="M87.1,25c0-1.1,0.1-2.1,0.4-3.1s0.7-1.9,1.2-2.8c0.5-0.9,1.1-1.6,1.8-2.4c0.7-0.7,1.5-1.3,2.3-1.8
				c0.9-0.5,1.8-0.9,2.8-1.2c1-0.3,2-0.4,3.1-0.4c1.1,0,2.1,0.1,3.1,0.4c1,0.3,1.9,0.7,2.8,1.2c0.9,0.5,1.6,1.1,2.3,1.8
				c0.7,0.7,1.3,1.5,1.8,2.4c0.5,0.9,0.9,1.8,1.2,2.8s0.4,2,0.4,3.1s-0.1,2.1-0.4,3.1c-0.3,1-0.7,1.9-1.2,2.8
				c-0.5,0.9-1.1,1.6-1.8,2.3c-0.7,0.7-1.5,1.3-2.3,1.8c-0.9,0.5-1.8,0.9-2.8,1.2c-1,0.3-2,0.4-3.1,0.4c-1.1,0-2.1-0.1-3.1-0.4
				c-1-0.3-1.9-0.7-2.8-1.2c-0.9-0.5-1.6-1.1-2.3-1.8c-0.7-0.7-1.3-1.5-1.8-2.3c-0.5-0.9-0.9-1.8-1.2-2.8
				C87.2,27.1,87.1,26.1,87.1,25z M92.9,25c0,0.8,0.1,1.6,0.4,2.3c0.3,0.7,0.7,1.4,1.2,1.9s1.1,1,1.8,1.3c0.7,0.3,1.5,0.5,2.3,0.5
				c0.8,0,1.6-0.2,2.3-0.5s1.3-0.7,1.8-1.3c0.5-0.5,0.9-1.2,1.2-1.9c0.3-0.7,0.4-1.5,0.4-2.3c0-0.8-0.1-1.6-0.4-2.3
				c-0.3-0.7-0.7-1.4-1.2-1.9c-0.5-0.5-1.1-1-1.8-1.3c-0.7-0.3-1.5-0.5-2.3-0.5c-0.8,0-1.6,0.2-2.3,0.5c-0.7,0.3-1.3,0.7-1.8,1.3
				c-0.5,0.5-0.9,1.2-1.2,1.9C93.1,23.4,92.9,24.2,92.9,25z"/>
		</defs>
		<clipPath id="SVGID_10_">
			<use xlink:href="#SVGID_9_"  style="overflow:visible;"/>
		</clipPath>
		<g class="st6">
			<g>
				<defs>
					<rect id="SVGID_11_" x="82.1" y="8.4" width="33.2" height="33.1"/>
				</defs>
				<clipPath id="SVGID_12_">
					<use xlink:href="#SVGID_11_"  style="overflow:visible;"/>
				</clipPath>
				<g style="clip-path:url(#SVGID_12_);">
					
						<image style="overflow:visible;" width="70" height="70" xlink:href="500CE4FB.jpg"  transform="matrix(0.48 0 0 0.48 81.8208 8.1585)">
					</image>
				</g>
			</g>
		</g>
	</g>
</g>
<path class="st5" d="M120.7,29c0.2,0.1,0.4,0.3,0.7,0.6c0.3,0.2,0.6,0.5,0.9,0.7c0.5,0.3,1,0.6,1.5,0.8c0.5,0.2,1,0.3,1.6,0.3
	c0.5,0,0.9-0.1,1.3-0.2c0.3-0.1,0.6-0.3,0.8-0.5c0.2-0.2,0.3-0.4,0.4-0.7c0.1-0.3,0.1-0.5,0.1-0.8c0-0.3-0.1-0.6-0.4-0.8
	s-0.5-0.5-0.9-0.7c-0.3-0.2-0.7-0.4-1.1-0.5c-0.4-0.1-0.7-0.2-1-0.3c-1.2-0.4-2.3-0.9-3.2-1.4c-0.9-0.5-1.7-1-2.3-1.6
	c-0.6-0.6-1.1-1.3-1.4-2c-0.3-0.7-0.5-1.5-0.5-2.4c0-0.9,0.2-1.8,0.6-2.6s0.9-1.4,1.6-2c0.7-0.5,1.5-1,2.5-1.3
	c1-0.3,2.1-0.4,3.3-0.4c0.9,0,1.8,0.1,2.6,0.3c0.8,0.2,1.7,0.5,2.5,1c0.3,0.2,0.7,0.4,1,0.6c0.3,0.2,0.6,0.4,0.8,0.6
	c0.2,0.2,0.4,0.4,0.6,0.6c0.1,0.2,0.2,0.3,0.2,0.5s0,0.3-0.1,0.4c-0.1,0.1-0.2,0.2-0.3,0.4l-2.3,2.5c-0.2,0.2-0.3,0.3-0.5,0.3
	c-0.1,0-0.3,0-0.4-0.1s-0.2-0.2-0.4-0.3l-0.1-0.1c-0.2-0.2-0.4-0.3-0.7-0.5c-0.2-0.2-0.5-0.3-0.8-0.5c-0.3-0.1-0.6-0.3-0.9-0.4
	c-0.3-0.1-0.6-0.1-1-0.1c-0.3,0-0.6,0-0.9,0.1c-0.3,0.1-0.5,0.1-0.8,0.3c-0.2,0.1-0.4,0.3-0.5,0.5c-0.1,0.2-0.2,0.4-0.2,0.7
	c0,0.3,0.1,0.5,0.2,0.7c0.1,0.2,0.4,0.4,0.6,0.6c0.3,0.2,0.6,0.3,1.1,0.5c0.4,0.2,0.9,0.3,1.5,0.5c1.1,0.4,2.1,0.7,3,1.1
	c0.9,0.4,1.7,0.8,2.3,1.4s1.2,1.2,1.5,1.9c0.4,0.7,0.6,1.6,0.6,2.7c0,1.1-0.2,2.1-0.7,3c-0.5,0.9-1.1,1.7-1.9,2.3
	c-0.8,0.6-1.7,1.1-2.8,1.5c-1.1,0.3-2.2,0.5-3.5,0.5c-1.2,0-2.3-0.2-3.4-0.6c-1.1-0.4-2.2-1-3.1-1.7c-0.4-0.3-0.7-0.6-1-0.9
	c-0.3-0.3-0.5-0.5-0.7-0.7l0,0c0,0,0,0,0,0c0,0,0,0,0,0c0,0,0,0,0,0c0,0,0,0,0,0c-0.2-0.3-0.3-0.5-0.3-0.6c0-0.2,0.1-0.4,0.3-0.6
	l2.6-2.5c0.2-0.2,0.4-0.2,0.5-0.2c0.1,0,0.2,0,0.3,0.1C120.4,28.8,120.6,28.9,120.7,29z"/>
<path class="st5" d="M139.5,14.4c0-0.2,0.1-0.4,0.2-0.5c0.1-0.1,0.3-0.2,0.5-0.2h16.3c0.2,0,0.3,0.1,0.5,0.2
	c0.1,0.1,0.2,0.3,0.2,0.5v3.8c0,0.2-0.1,0.4-0.2,0.5c-0.1,0.2-0.3,0.2-0.5,0.2h-5.2v16.6c0,0.2-0.1,0.3-0.2,0.5
	c-0.1,0.1-0.3,0.2-0.5,0.2h-4.4c-0.2,0-0.3-0.1-0.5-0.2c-0.2-0.1-0.2-0.3-0.2-0.5V19h-5.2c-0.2,0-0.4-0.1-0.5-0.2
	c-0.1-0.1-0.2-0.3-0.2-0.6V14.4z"/>
</svg>
